<svg width="1920" height="850" viewBox="0 0 1920 850" fill="none" xmlns="http://www.w3.org/2000/svg"><rect width="1920" height="850" fill="#020305"/><g opacity=".42"><circle cx="120" cy="92" r="1.4" fill="white"/><circle cx="310" cy="48" r="1" fill="white"/><circle cx="530" cy="128" r="1.2" fill="white"/><circle cx="800" cy="70" r="1" fill="white"/><circle cx="1000" cy="118" r="1.2" fill="white"/><circle cx="1260" cy="56" r="1" fill="white"/><circle cx="1500" cy="110" r="1.4" fill="white"/><circle cx="1710" cy="46" r="1" fill="white"/><circle cx="1850" cy="160" r="1.1" fill="white"/></g><defs><radialGradient id="sun" cx="0" cy="0" r="1" gradientUnits="userSpaceOnUse" gradientTransform="translate(1335 365) rotate(90) scale(210)"><stop stop-color="#fff5c4"/><stop offset=".12" stop-color="#f7b64b"/><stop offset=".5" stop-color="#a35b19" stop-opacity=".25"/><stop offset="1" stop-color="#000000" stop-opacity="0"/></radialGradient><linearGradient id="earth" x1="420" y1="430" x2="1900" y2="725" gradientUnits="userSpaceOnUse"><stop stop-color="#020407"/><stop offset=".33" stop-color="#101b27"/><stop offset=".55" stop-color="#233746"/><stop offset=".7" stop-color="#071017"/><stop offset="1" stop-color="#020305"/></linearGradient><linearGradient id="rim" x1="520" y1="405" x2="1830" y2="525" gradientUnits="userSpaceOnUse"><stop stop-color="#1e88c5" stop-opacity="0"/><stop offset=".45" stop-color="#87c7ec"/><stop offset=".7" stop-color="#fff7d1"/><stop offset="1" stop-color="#1e88c5" stop-opacity=".1"/></linearGradient><filter id="blur" x="-20%" y="-20%" width="140%" height="140%"><feGaussianBlur stdDeviation="18"/></filter><linearGradient id="fade" x1="0" x2="1920" y1="0" y2="0"><stop stop-color="#020305"/><stop offset=".35" stop-color="#020305" stop-opacity=".72"/><stop offset=".75" stop-color="#020305" stop-opacity=".04"/><stop offset="1" stop-color="#020305" stop-opacity=".12"/></linearGradient></defs><ellipse cx="1320" cy="365" rx="260" ry="260" fill="url(#sun)"/><g opacity=".9"><path d="M1140 362L1530 362" stroke="#F5C15A" stroke-width="2" opacity=".75"/><path d="M1335 180L1335 530" stroke="#F5C15A" stroke-width="2" opacity=".75"/><path d="M1215 245L1460 485" stroke="#F5C15A" stroke-width="1.5" opacity=".45"/><path d="M1455 245L1210 485" stroke="#F5C15A" stroke-width="1.5" opacity=".45"/></g><path d="M380 545C690 405 1170 370 1568 440C1765 475 1890 535 1940 590V850H365L380 545Z" fill="url(#earth)"/><path d="M420 528C790 385 1300 390 1685 490C1790 518 1875 555 1930 595" stroke="url(#rim)" stroke-width="9" opacity=".95"/><path d="M422 542C790 410 1280 405 1680 505C1788 532 1870 568 1922 606" stroke="#5BA7D6" stroke-width="2" opacity=".9"/><g opacity=".78" filter="url(#blur)"><circle cx="1050" cy="610" r="3" fill="#FFB43B"/><circle cx="1114" cy="590" r="2" fill="#FFB43B"/><circle cx="1188" cy="620" r="2.6" fill="#FFB43B"/><circle cx="1255" cy="590" r="3" fill="#FFB43B"/><circle cx="1325" cy="635" r="2.6" fill="#FFB43B"/><circle cx="1405" cy="610" r="2.2" fill="#FFB43B"/><circle cx="1470" cy="650" r="3" fill="#FFB43B"/></g><g opacity=".85"><path d="M990 630C1040 595 1088 620 1132 592C1195 552 1230 595 1270 585C1315 574 1340 616 1390 608C1440 600 1475 655 1535 638" stroke="#D8922A" stroke-width="1.2" opacity=".55"/><circle cx="1048" cy="612" r="3" fill="#D8922A"/><circle cx="1192" cy="621" r="3.5" fill="#F6B848"/><circle cx="1260" cy="590" r="3.2" fill="#F6B848"/><circle cx="1472" cy="650" r="4" fill="#F6B848"/></g><rect width="1920" height="850" fill="url(#fade)"/></svg>